<?xml version="1.0" encoding="UTF-8" standalone="no"?>
<!-- Created with Inkscape (http://www.inkscape.org/) -->

<svg
   xmlns:dc="http://purl.org/dc/elements/1.1/"
   xmlns:cc="http://creativecommons.org/ns#"
   xmlns:rdf="http://www.w3.org/1999/02/22-rdf-syntax-ns#"
   xmlns:svg="http://www.w3.org/2000/svg"
   xmlns="http://www.w3.org/2000/svg"
   xmlns:sodipodi="http://sodipodi.sourceforge.net/DTD/sodipodi-0.dtd"
   xmlns:inkscape="http://www.inkscape.org/namespaces/inkscape"
   width="744.09448819"
   height="1052.3622047"
   id="svg2"
   version="1.1"
   inkscape:version="0.48.1 r9760"
   sodipodi:docname="New document 1">
  <defs
     id="defs4">
    <marker
       inkscape:stockid="Arrow2Mend"
       orient="auto"
       refY="0"
       refX="0"
       id="Arrow2Mend"
       style="overflow:visible">
      <path
         inkscape:connector-curvature="0"
         id="path3908"
         style="font-size:12px;fill-rule:evenodd;stroke-width:0.625;stroke-linejoin:round"
         d="M 8.7185878,4.0337352 -2.2072895,0.01601326 8.7185884,-4.0017078 c -1.7454984,2.3720609 -1.7354408,5.6174519 -6e-7,8.035443 z"
         transform="scale(-0.6,-0.6)" />
    </marker>
    <marker
       inkscape:stockid="Arrow2Mend"
       orient="auto"
       refY="0"
       refX="0"
       id="marker4068"
       style="overflow:visible">
      <path
         inkscape:connector-curvature="0"
         id="path4070"
         style="font-size:12px;fill-rule:evenodd;stroke-width:0.625;stroke-linejoin:round"
         d="M 8.7185878,4.0337352 -2.2072895,0.01601326 8.7185884,-4.0017078 c -1.7454984,2.3720609 -1.7354408,5.6174519 -6e-7,8.035443 z"
         transform="scale(-0.6,-0.6)" />
    </marker>
    <marker
       inkscape:stockid="Arrow2Mend"
       orient="auto"
       refY="0"
       refX="0"
       id="marker4072"
       style="overflow:visible">
      <path
         inkscape:connector-curvature="0"
         id="path4074"
         style="font-size:12px;fill-rule:evenodd;stroke-width:0.625;stroke-linejoin:round"
         d="M 8.7185878,4.0337352 -2.2072895,0.01601326 8.7185884,-4.0017078 c -1.7454984,2.3720609 -1.7354408,5.6174519 -6e-7,8.035443 z"
         transform="scale(-0.6,-0.6)" />
    </marker>
  </defs>
  <sodipodi:namedview
     id="base"
     pagecolor="#ffffff"
     bordercolor="#666666"
     borderopacity="1.0"
     inkscape:pageopacity="0.0"
     inkscape:pageshadow="2"
     inkscape:zoom="5.1485325"
     inkscape:cx="236.18584"
     inkscape:cy="560.30585"
     inkscape:document-units="px"
     inkscape:current-layer="layer1"
     showgrid="false"
     inkscape:window-width="1280"
     inkscape:window-height="994"
     inkscape:window-x="0"
     inkscape:window-y="800"
     inkscape:window-maximized="1" />
  <metadata
     id="metadata7">
    <rdf:RDF>
      <cc:Work
         rdf:about="">
        <dc:format>image/svg+xml</dc:format>
        <dc:type
           rdf:resource="http://purl.org/dc/dcmitype/StillImage" />
        <dc:title></dc:title>
      </cc:Work>
    </rdf:RDF>
  </metadata>
  <g
     inkscape:label="Layer 1"
     inkscape:groupmode="layer"
     id="layer1">
    <path
       style="fill:#ff0000;fill-opacity:1;stroke:#000000;stroke-width:0.5;stroke-linecap:round;stroke-linejoin:miter;stroke-miterlimit:4;stroke-opacity:1;stroke-dasharray:none;stroke-dashoffset:0"
       id="path3783"
       d="m 131.42827,359.66985 c 0.20478,3.43891 0.67517,6.8545 1.07327,10.27459 0.35584,3.09794 0.49652,6.21409 0.57493,9.32957 0.0471,1.87228 0.0567,4.86178 0.15176,6.73733 0.0521,1.0282 0.15477,2.05322 0.23216,3.07983 0.15263,0.90408 0.25214,1.81875 0.45788,2.71224 0.53806,2.33681 1.53277,4.66101 3.3105,6.32529 0.24601,0.2303 0.53312,0.41234 0.79967,0.61852 0.83338,0.50744 1.48379,0.59977 2.38532,0.22934 0.1703,-0.07 0.65443,-0.33706 0.49542,-0.24424 -0.62952,0.36745 -1.27188,0.71245 -1.90783,1.06867 2.9605,-2.25379 5.75797,-4.71821 8.60939,-7.10781 2.79078,-2.34379 5.58355,-4.69115 8.28798,-7.13507 3.40195,-3.07427 6.68611,-6.27658 9.96637,-9.47892 4.48965,-4.50465 8.74985,-9.229 13.12042,-13.84737 6.69493,-7.07451 -0.605,0.74433 5.88941,-6.23872 4.30001,-4.64558 9.06086,-8.8248 13.70917,-13.11138 1.51905,-1.40208 0.79443,-0.74876 2.16901,-1.96535 0,0 2.44037,-0.9902 2.44037,-0.9902 l 0,0 c -1.47723,1.24944 -0.69914,0.57701 -2.32849,2.02399 -4.82574,4.29407 -9.70403,8.54775 -14.12837,13.2641 -5.77494,6.18461 0.0158,0.0158 -5.94122,6.26131 -3.27481,3.43334 -6.48728,6.92618 -9.76045,10.36087 -1.12389,1.17935 -2.26619,2.34103 -3.39928,3.51154 -3.23676,3.17845 -6.47533,6.36258 -9.81905,9.4295 -2.63125,2.41342 -5.34984,4.73368 -8.0658,7.05036 -1.88064,1.5982 -3.75572,3.20334 -5.61896,4.82182 -0.37804,0.32838 -0.74538,0.669 -1.12547,0.995 -0.17279,0.1482 -1.14137,0.93509 -1.40206,1.14728 -0.81877,0.47587 -3.0811,2.25957 -4.57561,2.00005 -0.59439,-0.10321 -0.76974,-0.29029 -1.28747,-0.61417 -0.25674,-0.22901 -0.53433,-0.43657 -0.7702,-0.68702 -2.38321,-2.53058 -3.13486,-6.01694 -3.5154,-9.36093 -0.0632,-1.03735 -0.14496,-2.07374 -0.18957,-3.11206 -0.11482,-2.67306 -0.0699,-4.05697 -0.1526,-6.73418 -0.0839,-2.71343 -0.14927,-3.78377 -0.40173,-6.4544 -0.0879,-0.93018 -0.20018,-1.8579 -0.30026,-2.78686 -0.11535,-0.86068 -0.22207,-1.72255 -0.34603,-2.58203 -0.49532,-3.4343 -0.21499,-1.19462 -0.68215,-4.32737 -0.0708,-0.47471 -0.11946,-0.95254 -0.19088,-1.42715 -0.0842,-0.55976 -0.19926,-1.14483 -0.30588,-1.70527 0,0 2.54173,-1.3307 2.54173,-1.3307 z"
       inkscape:connector-curvature="0" />
    <path
       style="fill:#ff0000;fill-opacity:1;stroke:#000000;stroke-width:0.5;stroke-linecap:round;stroke-linejoin:miter;stroke-miterlimit:4;stroke-opacity:1;stroke-dasharray:none;stroke-dashoffset:0"
       id="path3785"
       d="m 120.58263,442.41387 c 0.27876,1.44459 0.74727,2.84306 1.12371,4.2626 0.37062,1.3976 0.58844,2.43735 0.90689,3.85807 0.80057,2.79985 1.33153,5.74291 2.74267,8.32549 0.16029,0.29336 0.35529,0.56638 0.53294,0.84958 0.18705,0.21222 0.59377,0.79937 0.97677,0.83348 0.17824,0.0159 0.66696,-0.25793 0.50552,-0.18071 -0.5673,0.27135 -1.11125,0.90117 -1.72497,0.76398 -0.39099,-0.0874 0.47341,-0.64925 0.66556,-1.0008 0.21446,-0.39237 0.36678,-0.81564 0.55017,-1.22347 1.31377,-3.40002 1.79286,-7.03987 2.47226,-10.60108 1.07012,-4.83971 2.58601,-9.60456 4.59028,-14.14215 0.43122,-0.97624 0.91393,-1.92892 1.37089,-2.89338 1.88735,-3.7246 4.11888,-7.26822 6.65551,-10.58413 1.05962,-1.38515 1.83115,-2.276 2.93113,-3.58464 1.37567,-1.54566 0.72747,-0.82803 1.94073,-2.15638 0,0 2.43756,-1.0182 2.43756,-1.0182 l 0,0 c -1.32523,1.3666 -0.61988,0.62955 -2.1115,2.21547 -1.26092,1.43788 -1.85174,2.0769 -3.07289,3.62738 -2.59288,3.29212 -4.8665,6.82371 -6.74273,10.57339 -0.45506,0.95923 -0.93519,1.90696 -1.36518,2.87769 -1.98998,4.4925 -3.49208,9.21258 -4.46281,14.02754 -0.13306,0.76961 -0.27271,1.53811 -0.39916,2.30884 -0.45661,2.78292 -0.82545,5.60472 -1.85449,8.25151 -0.11314,0.27772 -0.77492,2.03768 -1.08041,2.29131 -0.92387,0.76701 -1.9727,1.37952 -3.03144,1.946 -0.1832,0.098 -0.42522,0.0723 -0.62326,0.009 -0.40524,-0.12858 -0.74792,-0.70443 -0.96389,-0.99008 -0.16495,-0.30089 -0.34644,-0.59328 -0.49485,-0.90266 -1.2803,-2.66894 -1.80901,-5.62455 -2.62732,-8.44769 -0.34802,-1.44676 -0.55121,-2.38787 -0.97763,-3.79894 -0.41928,-1.38748 -0.9456,-2.74198 -1.38135,-4.12431 0,0 2.51129,-1.37318 2.51129,-1.37318 z"
       inkscape:connector-curvature="0" />
    <path
       style="fill:#ff0000;fill-opacity:1;stroke:#000000;stroke-width:0.5;stroke-linecap:round;stroke-linejoin:miter;stroke-miterlimit:4;stroke-opacity:1;stroke-dasharray:none;stroke-dashoffset:0"
       id="path3846"
       d="m 140.70474,343.36556 c 0.22702,1.5102 1.06347,2.80314 1.77103,4.12427 0.24997,0.46675 0.48754,0.94004 0.73131,1.41006 0.73074,1.83486 1.54191,3.63577 2.31192,5.45416 0.76215,1.79983 0.91756,2.3082 1.82166,4.03196 0.31036,0.59172 0.66042,1.16176 0.99062,1.74264 1.04627,1.49803 2.21275,3.21133 3.81425,4.18016 0.72393,0.43794 1.18643,0.51633 1.98392,0.74756 0.94212,0.10054 1.08984,0.20976 2.02065,-0.0656 0.35935,-0.10631 1.36121,-0.62133 1.03816,-0.43141 -1.49931,0.88148 -2.97619,1.82367 -4.57415,2.51028 -0.55632,0.23904 0.95903,-0.74157 1.40668,-1.14928 0.51003,-0.46453 0.97515,-0.97608 1.46272,-1.46412 2.20912,-2.38259 4.59409,-4.59038 6.92442,-6.85093 1.67039,-1.62037 2.3648,-2.3521 3.9969,-4.02024 3.75313,-3.65406 6.84711,-7.90842 10.47405,-11.67823 0.74439,-0.77371 1.52696,-1.50976 2.29045,-2.26464 3.11653,-2.66805 6.19226,-5.38062 9.2376,-8.12922 0,0 5.87436,-2.37441 5.87436,-2.37441 l 0,0 c -3.48734,2.76685 -6.88717,5.64463 -10.29148,8.51229 -2.06569,2.01121 -2.57394,2.42765 -4.47822,4.59509 -0.69661,0.79289 -1.3483,1.62417 -2.02796,2.43163 -1.94102,2.30597 -3.89151,4.60831 -5.97831,6.7851 -1.26156,1.3173 -2.49469,2.66229 -3.7814,3.95503 -0.59038,0.59315 -1.21266,1.15376 -1.81045,1.73944 -1.621,1.5882 -3.21346,3.20952 -4.71673,4.91031 -0.30507,0.35028 -1.92229,2.27582 -2.41118,2.5912 -2.26661,1.46214 -4.60939,2.80682 -6.979,4.09536 -0.61794,0.33602 -1.6469,0.45737 -2.34246,0.39986 -0.3563,-0.0295 -0.69945,-0.14847 -1.04917,-0.22271 -0.97624,-0.37187 -1.18578,-0.37057 -2.02732,-1.01856 -1.57411,-1.21207 -2.56693,-2.96432 -3.4104,-4.72237 -0.93234,-1.94185 -1.85941,-3.88523 -2.79729,-5.82433 -0.41867,-0.8656 -1.28847,-2.74362 -1.73981,-3.61493 -0.27843,-0.53748 -0.58448,-1.06019 -0.87671,-1.59029 -1.10096,-1.69595 -2.28348,-3.32915 -3.48738,-4.95313 0,0 6.62872,-3.84198 6.62872,-3.84198 z"
       inkscape:connector-curvature="0" />
    <path
       style="fill:#ff0000;fill-opacity:1;stroke:#000000;stroke-width:0.5;stroke-linecap:round;stroke-linejoin:miter;stroke-miterlimit:4;stroke-opacity:1;stroke-dasharray:none;stroke-dashoffset:0"
       id="path3848"
       d="m 160.54837,448.90097 c -0.0435,0.13096 -0.0981,0.25871 -0.1304,0.39287 -0.0772,0.3211 -0.19093,1.15598 -0.24503,1.43287 -0.20562,1.05242 -0.49581,2.08944 -0.72382,3.13745 -0.29984,1.79117 -0.75689,3.5608 -0.8294,5.3834 -0.0375,0.94201 0.0169,1.1854 0.11044,2.06744 0.048,-0.0479 0.0936,0.89672 0.41524,0.87374 0.11753,-0.008 0.14623,-0.1848 0.22047,-0.27629 0.12536,-0.15447 0.55723,-0.54861 0.37832,-0.4616 -5.18258,2.52059 -6.56362,4.40732 -4.07097,1.53676 0.45364,-0.65603 0.92604,-1.29948 1.36092,-1.96809 1.67708,-2.57844 3.15238,-5.28161 4.8157,-7.86943 1.57808,-2.45521 1.96293,-2.94662 3.60689,-5.26956 1.44077,-1.99384 2.86647,-3.96051 4.83212,-5.47692 0.53891,-0.41575 1.113,-0.78699 1.70193,-1.12821 6.34424,-3.6758 4.82418,-2.93577 8.6239,-4.64409 0,0 -5.04521,3.997 -5.04521,3.997 l 0,0 c -2.89601,1.25936 -1.44539,0.70954 2.11026,-1.56061 0.60625,-0.38707 -1.26226,0.69499 -1.85484,1.10268 -0.64382,0.44293 -1.2698,0.9171 -1.84688,1.44405 -1.43085,1.30653 -2.42812,2.6571 -3.64996,4.16065 -0.637,0.83974 -1.30656,1.65575 -1.91102,2.51921 -0.62135,0.88759 -1.1926,1.80955 -1.76379,2.73022 -1.86634,3.00822 -3.51645,6.14008 -4.96916,9.36788 -2.09586,3.44679 -0.61654,1.41768 -7.53909,5.59057 -0.25473,0.15355 -0.56059,0.27131 -0.85711,0.24806 -0.84819,-0.0665 -0.77191,-1.1894 -0.78606,-1.72466 0.12969,-2.55972 0.41737,-5.10774 0.79696,-7.64214 0.14616,-1.09676 0.13305,-1.08441 0.31362,-2.12722 0.0476,-0.27514 0.1213,-0.54625 0.15204,-0.82379 0.0608,-0.54936 0.0139,-1.10973 -0.095,-1.64918 0,0 6.8789,-3.36306 6.8789,-3.36306 z"
       inkscape:connector-curvature="0" />
    <rect
       style="fill:#ffffff;stroke:#000000;stroke-width:0.78376716;stroke-miterlimit:4;stroke-dasharray:none"
       id="rect2985"
       width="24.873968"
       height="24.873968"
       x="255.52899"
       y="430.84592" />
    <rect
       y="443.70639"
       x="201.85562"
       height="31.736425"
       width="31.736425"
       id="rect3852"
       style="fill:none;stroke:none;stroke-width:1;stroke-miterlimit:4;stroke-dasharray:none"
       inkscape:export-filename="/home/sur096/verify.png"
       inkscape:export-xdpi="90"
       inkscape:export-ydpi="90" />
    <g
       id="g4164"
       transform="translate(-7.0483008,-43.266972)"
       inkscape:export-filename="/home/sur096/verify.png"
       inkscape:export-xdpi="90"
       inkscape:export-ydpi="90">
      <g
         transform="matrix(0.04328426,0,0,0.04328426,198.39253,488.9502)"
         id="g6547">
        <g
           transform="translate(571.81381,317.09407)"
           id="g5242">
          <rect
             ry="15.4"
             y="235.14876"
             x="-111.11681"
             height="133.34013"
             width="215.74887"
             id="rect3781"
             style="fill:none;stroke:#000000;stroke-width:10;stroke-linecap:round;stroke-linejoin:miter;stroke-miterlimit:4;stroke-opacity:1;stroke-dasharray:none;stroke-dashoffset:0" />
          <rect
             style="fill:#000000;stroke:#000000;stroke-width:1;stroke-linecap:round;stroke-linejoin:miter;stroke-miterlimit:4;stroke-opacity:1;stroke-dasharray:none;stroke-dashoffset:0"
             id="rect3783"
             width="78.454132"
             height="48.487324"
             x="-42.469444"
             y="211.54733"
             ry="0" />
        </g>
        <g
           transform="translate(847.5281,-168.3345)"
           id="g5696">
          <g
             transform="translate(-465.71429,-91.42857)"
             id="g5246">
            <g
               id="g5256"
               transform="matrix(-1,0,0,-1,-6.4847565,584.53622)">
              <rect
                 style="fill:none;stroke:#000000;stroke-width:10;stroke-linecap:round;stroke-linejoin:miter;stroke-miterlimit:4;stroke-opacity:1;stroke-dasharray:none;stroke-dashoffset:0"
                 id="rect5248"
                 width="215.74887"
                 height="133.34013"
                 x="-111.11681"
                 y="235.14876"
                 ry="15.4" />
              <rect
                 ry="0"
                 y="211.54733"
                 x="-42.469444"
                 height="48.487324"
                 width="78.454132"
                 id="rect5250"
                 style="fill:#000000;stroke:#000000;stroke-width:1;stroke-linecap:round;stroke-linejoin:miter;stroke-miterlimit:4;stroke-opacity:1;stroke-dasharray:none;stroke-dashoffset:0" />
            </g>
          </g>
          <g
             id="g5305"
             transform="translate(-465.71429,-88.57143)">
            <g
               transform="matrix(-1,0,0,-1,373.51524,581.67908)"
               id="g5307">
              <rect
                 ry="15.4"
                 y="235.14876"
                 x="-111.11681"
                 height="133.34013"
                 width="215.74887"
                 id="rect5309"
                 style="fill:none;stroke:#000000;stroke-width:10;stroke-linecap:round;stroke-linejoin:miter;stroke-miterlimit:4;stroke-opacity:1;stroke-dasharray:none;stroke-dashoffset:0" />
              <rect
                 style="fill:#000000;stroke:#000000;stroke-width:1;stroke-linecap:round;stroke-linejoin:miter;stroke-miterlimit:4;stroke-opacity:1;stroke-dasharray:none;stroke-dashoffset:0"
                 id="rect5311"
                 width="78.454132"
                 height="48.487324"
                 x="-42.469444"
                 y="211.54733"
                 ry="0" />
            </g>
          </g>
        </g>
        <g
           id="g3823"
           transform="translate(721.31638,-574.04879)">
          <g
             transform="matrix(-1,0,0,-1,-305.4899,1760.4452)"
             id="g3793">
            <rect
               ry="15.4"
               y="803.86469"
               x="-260.61938"
               height="133.34013"
               width="215.74887"
               id="rect3785"
               style="fill:none;stroke:#000000;stroke-width:10;stroke-linecap:round;stroke-linejoin:miter;stroke-miterlimit:4;stroke-opacity:1;stroke-dasharray:none;stroke-dashoffset:0" />
            <g
               transform="translate(491.43922,339.41126)"
               id="g3787">
              <rect
                 ry="0"
                 y="573.18195"
                 x="-635.42896"
                 height="48.487324"
                 width="78.454132"
                 id="rect3789"
                 style="fill:#000000;stroke:#000000;stroke-width:1;stroke-linecap:round;stroke-linejoin:miter;stroke-miterlimit:4;stroke-opacity:1;stroke-dasharray:none;stroke-dashoffset:0" />
              <rect
                 ry="0"
                 y="573.18195"
                 x="-731.39349"
                 height="48.487324"
                 width="78.454132"
                 id="rect3791"
                 style="fill:#000000;stroke:#000000;stroke-width:1;stroke-linecap:round;stroke-linejoin:miter;stroke-miterlimit:4;stroke-opacity:1;stroke-dasharray:none;stroke-dashoffset:0" />
            </g>
          </g>
          <rect
             style="fill:#000000;stroke:#000000;stroke-width:1;stroke-linecap:round;stroke-linejoin:miter;stroke-miterlimit:4;stroke-opacity:1;stroke-dasharray:none;stroke-dashoffset:0"
             id="rect3801"
             width="78.454132"
             height="48.487324"
             x="-191.97202"
             y="931.28101"
             ry="0" />
        </g>
        <path
           style="fill:none;stroke:#000000;stroke-width:8;stroke-linecap:butt;stroke-linejoin:miter;stroke-miterlimit:4;stroke-opacity:1;stroke-dasharray:none;marker-end:url(#Arrow2Mend)"
           d="m 381.81381,95.456251 90.94086,51.951689 45.14681,74.92778"
           id="path5324"
           inkscape:connector-curvature="0"
           sodipodi:nodetypes="ccc" />
        <path
           style="fill:none;stroke:#000000;stroke-width:8;stroke-linecap:butt;stroke-linejoin:miter;stroke-miterlimit:4;stroke-opacity:1;stroke-dasharray:none;marker-end:url(#Arrow2Mend)"
           d="m 763.68544,92.068091 -92.41195,54.384189 -50.92819,73.4447"
           id="path5510"
           inkscape:connector-curvature="0"
           sodipodi:nodetypes="ccc" />
        <path
           style="fill:none;stroke:#000000;stroke-width:8;stroke-linecap:butt;stroke-linejoin:miter;stroke-miterlimit:4;stroke-opacity:1;stroke-dasharray:none;marker-start:none;marker-end:url(#Arrow2Mend)"
           d="m 573.24239,388.3134 -2.85715,131.42857"
           id="path5706"
           inkscape:connector-curvature="0" />
      </g>
      <path
         sodipodi:nodetypes="ccccccccccscccccssscssscccsccccccc"
         inkscape:connector-curvature="0"
         d="m 215.39267,505.73586 c 0.003,0.0563 7.8e-4,0.11322 0.01,0.16888 0.0148,0.0919 0.041,0.1817 0.0614,0.27255 0.0253,0.13321 0.0564,0.26547 0.076,0.39964 0.0299,0.20379 0.0435,0.40974 0.0727,0.61362 0.0153,0.10647 0.22575,1.35768 0.24042,1.44512 0.17746,1.26153 0.12696,2.54023 0.24458,3.80679 0.0725,0.78088 0.11725,0.18447 0.26622,0.918 0.64631,0.0542 0.25724,-0.32197 1.75214,-1.76595 1.64063,-2.34721 2.24737,-3.29902 3.93459,-5.6129 2.2726,-2.95343 4.36936,-6.06918 6.88973,-8.82522 1.14851,-1.25592 1.77808,-1.77593 2.99714,-2.87441 2.27966,-1.9564 4.89818,-3.21889 7.51771,-4.73929 l -4.06304,3.28226 0,0 c 7.36143,-4.34915 2.04583,-1.30283 0.71748,-0.23045 -1.48149,1.18423 -2.09386,1.60722 -3.46704,3.00038 -1.31793,1.3371 -2.41838,2.71643 -3.58558,4.1858 -0.60943,0.7672 -1.21312,1.53907 -1.80523,2.31971 -0.5995,0.79041 -1.17954,1.59541 -1.76932,2.39311 -1.32422,1.88873 -1.94157,2.72218 -3.16455,4.64567 -0.43007,0.67642 -0.84745,1.36111 -1.25051,2.05396 -1.5188,2.6108 -0.38051,0.852 -1.75521,3.09587 -0.20682,0.33758 -0.42898,0.66552 -0.64347,0.99829 -1.80167,1.098 -3.5537,2.28192 -5.40499,3.29401 -0.18804,0.1028 -0.4347,0.0635 -0.64281,0.0123 -0.16577,-0.0408 -0.30744,-0.15877 -0.43114,-0.2764 -0.45907,-0.43657 -0.55141,-1.09909 -0.65582,-1.68527 -0.16073,-1.80436 -0.19032,-3.62483 -0.5389,-5.40745 -0.10675,-0.52109 -0.15748,-0.85588 -0.32807,-1.35699 -0.0608,-0.17853 -0.1458,-0.3479 -0.21601,-0.52294 -0.103,-0.25682 -0.19164,-0.51742 -0.36212,-0.74052 l 5.30378,-2.86817 z"
         id="path3850"
         style="fill:#00ff00;fill-opacity:1;stroke:#000000;stroke-width:0.39188358;stroke-linecap:round;stroke-linejoin:miter;stroke-miterlimit:4;stroke-opacity:1;stroke-dasharray:none;stroke-dashoffset:0" />
    </g>
  </g>
</svg>
